<svg xmlns="http://www.w3.org/2000/svg" fill-rule="evenodd" viewBox="0 0 100 100">
    <path d="m90.546 60.145-9.735-9.752c-.009-.009-.022-.012-.032-.021l8.944-8.944c2.315-2.316 3.592-5.407 3.592-8.704s-1.276-6.387-3.592-8.704l-12.4-12.399c-4.8-4.8-12.609-4.798-17.407 0l-9.167 9.168-9.212-9.161c-4.798-4.771-12.604-4.771-17.402 0L11.732 23.96c-2.318 2.305-3.596 5.382-3.596 8.664s1.277 6.359 3.596 8.664l9.285 9.233-9.203 9.204a12.222 12.222 0 0 0-3.592 8.704c0 3.296 1.276 6.387 3.592 8.703l12.399 12.399c2.316 2.316 5.407 3.592 8.704 3.592s6.387-1.275 8.704-3.592l8.949-8.949 9.783 9.799a12.38 12.38 0 0 0 8.823 3.647 12.381 12.381 0 0 0 8.821-3.647l12.55-12.57c4.862-4.871 4.862-12.795-.001-17.666zM13.668 39.342c-1.797-1.787-2.786-4.172-2.786-6.718s.989-4.931 2.786-6.718l12.401-12.332c3.731-3.709 9.8-3.709 13.531 0l9.206 9.156-25.848 25.85-9.29-9.238zm26.01 48.248c-1.797 1.799-4.199 2.789-6.762 2.789s-4.965-.99-6.762-2.789l-12.4-12.4a9.493 9.493 0 0 1-2.788-6.762c0-2.563.99-4.965 2.788-6.763l48.102-48.104a9.53 9.53 0 0 1 6.762-2.797c2.449 0 4.898.932 6.763 2.797l12.4 12.399c1.798 1.797 2.788 4.199 2.788 6.762s-.99 4.965-2.788 6.762L39.678 87.59zm48.878-11.766-12.55 12.57a9.583 9.583 0 0 1-6.831 2.821 9.582 9.582 0 0 1-6.833-2.821l-9.784-9.801L78.801 52.35c.008.009.011.021.019.029l9.735 9.752c3.77 3.775 3.77 9.918.001 13.693z"/>
    <path d="M51.178 34.422a1.374 1.374 0 0 0-1.941 0L33.682 49.977a1.372 1.372 0 0 0 0 1.941l15.555 15.555a1.373 1.373 0 0 0 1.942 0l15.555-15.555a1.372 1.372 0 0 0 0-1.941L51.178 34.422zm-.971 30.139L36.593 50.947l13.614-13.614L63.82 50.947 50.207 64.561zm8.945-39.485a1.373 1.373 0 0 0-1.941 1.941l17.386 17.385a1.37 1.37 0 0 0 1.942 0 1.372 1.372 0 0 0 0-1.941L59.152 25.076zM25.299 58.931a1.372 1.372 0 1 0-1.941 1.941l17.385 17.385a1.373 1.373 0 0 0 1.942-1.941L25.299 58.931z"/>
</svg>
