<svg xmlns="http://www.w3.org/2000/svg" fill-rule="evenodd" viewBox="0 0 100 100">
    <path d="M67.272 58.658c0-9.14-7.088-16.64-16.054-17.332v-8.32c6.198-.744 11.019-6.038 11.019-12.438 0-6.9-5.616-12.514-12.519-12.514a1.5 1.5 0 0 0-1.5 1.5v20.561c-11.979.775-21.49 10.761-21.49 22.933 0 12.176 9.511 22.167 21.49 22.942v6.948c0 3.311-2.895 6.004-6.453 6.004-3.555 0-6.446-2.693-6.446-6.004a1.5 1.5 0 1 0-3 0c0 4.965 4.238 9.004 9.446 9.004 5.212 0 9.453-4.039 9.453-9.004v-6.952c8.967-.691 16.054-8.189 16.054-17.328zM51.219 11.173c4.538.721 8.019 4.66 8.019 9.396 0 4.742-3.48 8.687-8.019 9.409V11.173zm-21.49 41.876c0-10.516 8.168-19.14 18.49-19.911v8.213a17.283 17.283 0 0 0-12.017 6.545 1.499 1.499 0 1 0 2.356 1.856 14.312 14.312 0 0 1 9.661-5.4v28.617c-10.322-.771-18.49-9.399-18.49-19.92zm21.49 19.938V44.326c7.311.682 13.054 6.846 13.054 14.332-.001 7.484-5.744 13.647-13.054 14.329z"/>
</svg>
