<svg xmlns="http://www.w3.org/2000/svg" fill-rule="evenodd" viewBox="0 0 100 100">
    <path d="M75 9H26a6 6 0 0 0-6 6v9h-5.5a1.5 1.5 0 0 0 0 3H20v9h-5.5a1.5 1.5 0 0 0 0 3H20v9h-5.5a1.5 1.5 0 0 0 0 3H20v10h-5.5a1.5 1.5 0 0 0 0 3H20v10h-5.5a1.5 1.5 0 0 0 0 3H20v9a6 6 0 0 0 6 6h49a6 6 0 0 0 6-6V15a6 6 0 0 0-6-6ZM23 86v-9h4.5a1.5 1.5 0 0 0 0-3H23V64h4.5a1.5 1.5 0 0 0 0-3H23V51h4.5a1.5 1.5 0 0 0 0-3H23v-9h4.5a1.5 1.5 0 0 0 0-3H23v-9h4.5a1.5 1.5 0 0 0 0-3H23v-9a3 3 0 0 1 3-3h38v77H26a3 3 0 0 1-3-3Zm55 0a3 3 0 0 1-3 3h-8V12h8a3 3 0 0 1 3 3Z"/>
</svg>
